<?xml version="1.0" encoding="utf-8"?><!-- Generator: Adobe Illustrator 21.1.0, SVG Export Plug-In . SVG Version: 6.00 Build 0)  --><svg xmlns="http://www.w3.org/2000/svg" xmlns:xlink="http://www.w3.org/1999/xlink" viewBox="0 0 128 128" width="512px" height="512px"><g><g><g><g><circle cx="107" cy="92" r="12" style="fill:#FFFFFF;"/></g></g></g><g><g><g><circle cx="57" cy="102" r="12" style="fill:#FFFFFF;"/></g></g></g><g><g><g><circle cx="22" cy="72" r="12" style="fill:#FFFFFF;"/></g></g></g><path d="M33.9,24c-1.6,0-2.9,1.4-2.9,3l0,31.2c0,0.8-0.8,1.2-1.5,0.8c-2.7-1.6-6-2.3-9.4-1.9c-6.8,0.9-12.3,6.4-13,13.3c-1,9.4,6.7,17.2,16,16.6C31,86.4,37,79.5,37,71.6l0-41.1c3.5,1.2,6,4.5,6,8.4c0,1.2,0.7,2.4,1.9,2.8C47,42.6,49,41,49,39C49,30.7,42.2,23.9,33.9,24z M22,81c-5,0-9-4-9-9s4-9,9-9s9,4,9,9S27,81,22,81z" style="fill:#444B54;"/><path d="M122,49.2c0-4.5-2.3-8.7-6.2-11.1c-2.9-1.8-6.3-2.2-9.6-1.6l-29.7,5.9C70.4,43.7,66,49,66,55.2v33c0,0.8-0.8,1.2-1.5,0.8c-2.7-1.6-6-2.3-9.4-1.9c-6.8,0.9-12.3,6.4-13,13.3c-1,9.4,6.7,17.2,16,16.6c7.9-0.6,13.9-7.4,13.9-15.3l0-32.2l44-8.8v17.5c0,0.8-0.8,1.2-1.5,0.8c-2.7-1.6-6-2.3-9.4-1.9c-6.8,0.9-12.3,6.4-13,13.3c-1,9.4,6.7,17.2,16,16.6c7.9-0.6,13.9-7.4,13.9-15.3L122,49.2z M57,111c-5,0-9-4-9-9s4-9,9-9s9,4,9,9S62,111,57,111z M72,63.3v-8.1c0-3.3,2.4-6.2,5.6-6.9l30-6c2.1-0.4,4.2,0.1,5.8,1.5c1.6,1.3,2.6,3.3,2.6,5.4v5.3L72,63.3z M107,101c-5,0-9-4-9-9s4-9,9-9s9,4,9,9S112,101,107,101z" style="fill:#444B54;"/></g></svg>